# AST/ASF file generated using VICON BodyLanguage
# -----------------------------------------------
:version 1.10
:name VICON
:units
  mass 1.0
  length 0.45
  angle deg
:documentation
   .ast/.asf automatically generated from VICON data using
   VICON BodyBuilder and BodyLanguage model FoxedUp or BRILLIANT.MOD
:root
   order TX TY TZ RX RY RZ
   axis XYZ
   position 0 0 0  
   orientation 0 0 0 
:bonedata
  begin
     id 1 
     name lhipjoint
     direction 0.671379 -0.66392 0.329334 
     length 2.38647 
     axis 0 0 0  XYZ
  end
  begin
     id 2 
     name lfemur
     direction 0.34202 -0.939693 0  
     length 6.48179  
     axis 0 0 20  XYZ
    dof rx ry rz
    limits (-160.0 20.0)
           (-70.0 70.0)
           (-60.0 70.0)
  end
  begin
     id 3 
     name ltibia
     direction 0.34202 -0.939693 0   
     length 6.86524   
     axis 0 0 20   XYZ
    dof rx
    limits (-10.0 170.0)
  end
  begin
     id 4 
     name lfoot
     direction 0.204886 -0.562919 0.800715   
     length 1.73031   
     axis -90 7.62852e-016 20   XYZ
    dof rx rz
    limits (-45.0 90.0)
           (-70.0 20.0)
  end
  begin
     id 5 
     name ltoes
     direction 1.53548e-011 -4.21841e-011 1   
     length 0.828161   
     axis -90 7.62852e-016 20   XYZ
    dof rx
    limits (-90.0 20.0)
  end
  begin
     id 6 
     name rhipjoint
     direction -0.662732 -0.670855 0.332775   
     length 2.3618  
     axis 0 0 0  XYZ 
  end
  begin
     id 7 
     name rfemur
     direction -0.34202 -0.939693 0   
     length 6.3025   
     axis 0 0 -20   XYZ
    dof rx ry rz
    limits (-160.0 20.0)
           (-70.0 70.0)
           (-70.0 60.0)
  end
  begin
     id 8 
     name rtibia
     direction -0.34202 -0.939693 0   
     length 6.8732   
     axis 0 0 -20   XYZ
    dof rx
    limits (-10.0 170.0)
 end
 begin
     id 9 
     name rfoot
     direction -0.173856 -0.477665 0.861168   
     length 1.54784  
     axis -90 -7.62852e-016 -20   XYZ
    dof rx rz
    limits (-45.0 90.0)
           (-20.0 70.0)
  end
  begin
     id 10 
     name rtoes
     direction -1.53562e-011 -4.21802e-011 1   
     length 0.759618   
     axis -90 -7.62852e-016 -20   XYZ
    dof rx
    limits (-90.0 20.0)
  end
  begin
     id 11 
     name lowerback
     direction -0.0278357 0.999497 -0.0151789   
     length 1.97203   
     axis 0 0 0   XYZ
    dof rx ry rz
    limits (-20.0 45.0)
           (-30.0 30.0)
           (-30.0 30.0)
  end
  begin
     id 12 
     name upperback
     direction -0.00360622 0.997542 0.0699804   
     length 1.94709   
     axis 0 0 0   XYZ
    dof rx ry rz
    limits (-20.0 45.0)
           (-30.0 30.0)
           (-30.0 30.0)
  end
  begin
     id 13 
     name thorax
     direction 0.00907706 0.997048 0.0762461   
     length 1.95722   
     axis 0 0 0   XYZ
    dof rx ry rz
    limits (-20.0 45.0)
           (-30.0 30.0)
           (-30.0 30.0)
  end
  begin
     id 14 
     name lowerneck
     direction -0.0481835 0.99872 -0.0153927   
     length 1.63078   
     axis 0 0 0   XYZ
    dof rx ry rz
    limits (-20.0 45.0)
           (-30.0 30.0)
           (-30.0 30.0)
  end
  begin
     id 15 
     name upperneck
     direction 0.0859716 0.979226 -0.183644   
     length 1.62591   
     axis 0 0 0   XYZ
    dof rx ry rz
    limits (-20.0 45.0)
           (-30.0 30.0)
           (-30.0 30.0)
  end
  begin
     id 16
     name head
     direction 0.0324821 0.997629 -0.0606773  
     length 1.64811  
     axis 0 0 0   XYZ
    dof rx ry rz
    limits (-20.0 45.0)
           (-30.0 30.0)
           (-30.0 30.0)
  end
  begin
     id 17 
     name lclavicle
     direction 0.939609 0.311019 0.142835  
     length 3.70647  
     axis 0 0 0   XYZ
    dof ry rz
    limits (-20.0 10.0)
           (0.0 20.0)
  end
  begin
     id 18 
     name lhumerus
     direction 1 -4.48963e-011 -1.59838e-027   
     length 4.59207   
     axis 180 -30 -90   XYZ
    dof rx ry rz
    limits (-60.0 90.0)
           (-90.0 90.0)
           (-90.0 90.0)
  end
  begin
     id 19
     name lradius
     direction 1 -4.48957e-011 -1.3483e-026   
     length 2.98109   
     axis 180 -30 -90   XYZ
    dof rx
    limits (-10.0 170.0)
  end
  begin
     id 20
     name lwrist
     direction 1 -4.48954e-011 -3.11579e-026   
     length 1.49055   
     axis 2.00652e-014 90 90   XYZ
    dof ry
    limits (-180.0 0.0)
 end
  begin
     id 21 
     name lhand
     direction 1 -4.4911e-011 -6.23158e-026   
     length 0.480203   
     axis 3.97628e-014 90 90   XYZ
    dof rx rz
    limits (-90.0 90.0)
           (-45.0 45.0)
  end
  begin
     id 22 
     name lfingers
     direction 1 -4.48893e-011 -1.24632e-025   
     length 0.387152   
     axis 7.95256e-014 90 90   XYZ
    dof rx
    limits (0.0 90.0)
  end
  begin
     id 23
     name lthumb
     direction 0.707107 -6.35013e-011 0.707107   
     length 0.555875   
     axis -90 45 2.85299e-015   XYZ
    dof rx rz
    limits (-45.0 45.0)
           (-45.0 45.0)
  end
  begin
     id 24 
     name rclavicle
     direction -0.950396 0.30392 0.0661859   
     length 3.70894  
     axis 0 0 0   XYZ 
    dof ry rz
    limits (-10.0 20.0)
           (-20.0 0.0)
  end
  begin
     id 25 
     name rhumerus
     direction -1 -4.48957e-011 -2.96677e-027  
     length 4.76508   
     axis 180 30 90   XYZ
    dof rx ry rz
    limits (-90.0 60.0)
           (-90.0 90.0)
           (-90.0 90.0)
  end
  begin
     id 26 
     name rradius
     direction -1 -4.48974e-011 -1.44501e-026   
     length 2.78902   
     axis 180 30 90   XYZ
    dof rx
    limits (-10.0 170.0)
  end
  begin
     id 27 
     name rwrist
     direction -1 -4.48978e-011 -3.11579e-026   
     length 1.39451   
     axis 2.00652e-014 -90 -90   XYZ
    dof ry
    limits (-180.0 0.0)
  end
  begin
     id 28
     name rhand
     direction -1 -4.48956e-011 -6.23158e-026   
     length 0.721303   
     axis 3.97628e-014 -90 -90   XYZ
    dof rx rz
    limits (-90.0 90.0)
           (-45.0 45.0)
  end
  begin
     id 29
     name rfingers
     direction -1 -4.4899e-011 -1.24632e-025   
     length 0.581533   
     axis 7.95256e-014 -90 -90   XYZ
    dof rx
    limits (0.0 90.0)
  end
  begin
     id 30
     name rthumb
     direction -0.707107 -6.34911e-011 0.707107   
     length 0.834968   
     axis -90 -45 -2.85299e-015   XYZ
    dof rx rz
    limits (-45.0 45.0)
           (-45.0 45.0)
  end
:hierarchy
  begin
    root lhipjoint rhipjoint lowerback
    lhipjoint lfemur
    lfemur ltibia
    ltibia lfoot
    lfoot ltoes
    rhipjoint rfemur
    rfemur rtibia
    rtibia rfoot
    rfoot rtoes
    lowerback upperback
    upperback thorax
    thorax lowerneck lclavicle rclavicle
    lowerneck upperneck
    upperneck head
    lclavicle lhumerus
    lhumerus lradius
    lradius lwrist
    lwrist lhand lthumb
    lhand lfingers
    rclavicle rhumerus
    rhumerus rradius
    rradius rwrist
    rwrist rhand rthumb
    rhand rfingers
  end

#!OML:ASF I:\salsa\salsa 7_09\Patient 1\Session 1\dancerfemale.ASF
:FULLY-SPECIFIED
:DEGREES
975
root -11.3123 16.2311 0.333303 -371.901 141.386 -21.5457
lowerback 6.19375 -0.459659 -8.15698
upperback -4.05609 -1.39901 -5.77385
thorax -7.74431 -0.253236 -1.39417
lowerneck 11.6394 -18.2886 -14.2454
upperneck -7.11306 -25.5969 13.4294
head -0.409849 -13.0892 6.25714
rclavicle -2.08103e-014 3.45885e-014
rhumerus -48.6204 -54.037 -1.46149
rradius 76.399
rwrist -29.4068
rhand -5.83915 51.0647
rfingers 7.12502
rthumb 19.987 22.0726
lclavicle -2.08103e-014 3.45885e-014
lhumerus -49.2969 -5.66943 98.3239
lradius 102.37
lwrist -9.31291
lhand 3.08881 33.2816
lfingers 7.12502
lthumb 28.5454 61.1226
rfemur -41.7148 -32.5854 4.91689
rtibia 40.5898
rfoot -9.95294 -38.9187
rtoes 10.3149
lfemur 3.81277 -1.63694 -34.3968
ltibia 21.8274
lfoot -3.79263 -9.62671
ltoes 12.9436
976
root -10.9331 16.2053 0.31254 -372.158 142.053 -21.3809
lowerback 6.18118 -0.955501 -9.15588
upperback -4.11468 -2.14314 -5.59813
thorax -7.74003 -0.553423 -0.566847
lowerneck 11.6473 -18.1878 -14.2272
upperneck -6.55871 -25.4992 13.0833
head -0.308756 -13.0325 6.13866
rclavicle -2.71093e-014 2.08724e-014
rhumerus -51.2294 -53.6836 1.61241
rradius 76.3255
rwrist -31.2982
rhand -6.54246 51.3994
rfingers 7.12502
rthumb 19.3108 22.3382
lclavicle -2.71093e-014 2.08724e-014
lhumerus -49.7777 -6.03825 98.0028
lradius 102.975
lwrist -8.62249
lhand 2.33341 32.809
lfingers 7.12502
lthumb 27.8234 60.769
rfemur -41.3096 -33.5792 5.74902
rtibia 41.4374
rfoot -10.0845 -38.5172
rtoes 26.6338
lfemur 4.6814 -2.7658 -33.4438
ltibia 22.634
lfoot -2.90202 -9.76095
ltoes 11.1477
977
root -10.5378 16.2004 0.297439 -372.072 141.922 -20.7502
lowerback 5.99775 -1.33645 -9.67
upperback -4.32183 -2.68608 -5.28301
thorax -7.79412 -0.779269 0.110421
lowerneck 11.6768 -18.0305 -14.2306
upperneck -5.93262 -25.3337 12.6956
head -0.200545 -12.9416 6.01463
rclavicle -3.31225e-014 -2.10712e-014
rhumerus -53.5359 -53.328 4.34559
rradius 76.0981
rwrist -33.08
rhand -6.49181 51.7573
rfingers 7.12502
rthumb 19.3595 22.701
lclavicle -3.31225e-014 -2.10712e-014
lhumerus -50.4193 -6.53396 97.7323
lradius 103.84
lwrist -8.25216
lhand 2.70675 34.0995
lfingers 7.12502
lthumb 28.1803 62.0013
rfemur -40.8019 -33.732 7.35622
rtibia 42.4731
rfoot -14.3745 -39.0997
rtoes 21.8307
lfemur 5.28665 -3.81705 -31.9863
ltibia 23.5724
lfoot -1.6468 -9.61672
ltoes 9.28012
978
root -10.1569 16.2049 0.281646 -372.244 140.776 -20.3359
lowerback 5.96962 -1.31057 -9.73461
upperback -4.64602 -2.68108 -5.06638
thorax -8.12037 -0.751122 0.371152
lowerneck 11.9031 -17.92 -14.4712
upperneck -5.28082 -25.2821 12.4122
head -0.0564001 -12.9145 5.95027
rclavicle -5.13113e-015 2.85256e-014
rhumerus -56.2662 -53.1242 7.74455
rradius 75.4845
rwrist -34.3693
rhand -6.26948 52.4992
rfingers 7.12502
rthumb 19.5733 23.4644
lclavicle -5.13113e-015 2.85256e-014
lhumerus -51.0519 -7.58167 97.8082
lradius 104.493
lwrist -7.65987
lhand 2.49287 32.7979
lfingers 7.12502
lthumb 27.9759 60.7332
rfemur -40.0643 -32.9372 8.86393
rtibia 43.4676
rfoot -15.7164 -38.2424
rtoes 16.8254
lfemur 5.75664 -4.44867 -30.7334
ltibia 24.7175
lfoot 0.154523 -8.6524
ltoes 8.01021
979
root -9.78307 16.2181 0.259241 -372.65 139.599 -20.8894
lowerback 5.47353 -1.43975 -10.1665
upperback -5.08658 -2.83755 -5.17438
thorax -8.29196 -0.77341 0.491279
lowerneck 11.94 -17.7394 -14.5752
upperneck -4.4907 -25.1029 12.0025
head 0.10871 -12.8183 5.82161
rclavicle -7.26682e-014 -5.32743e-014
rhumerus -59.1404 -52.8676 10.5041
rradius 76.673
rwrist -35.4247
rhand -6.39469 52.1335
rfingers 7.12502
rthumb 19.4529 23.0866
lclavicle -7.26682e-014 -5.32743e-014
lhumerus -51.4227 -8.53798 97.8332
lradius 105.088
lwrist -6.64039
lhand 0.890252 31.7595
lfingers 7.12502
lthumb 26.4428 59.935
rfemur -39.3957 -31.9709 9.35586
rtibia 44.3527
rfoot -14.7975 -36.3776
rtoes 10.6413
lfemur 5.55108 -4.97659 -30.349
ltibia 26.2227
lfoot 2.85464 -7.33557
ltoes 8.09484
